<svg width="11" height="11" viewBox="0 0 11 11" fill="none" xmlns="http://www.w3.org/2000/svg">
<path d="M3.45799 1.3208C2.26635 1.3208 1.29688 2.29028 1.29688 3.48192V6.93971C1.29688 8.13135 2.26635 9.10083 3.45799 9.10083H6.91578C8.10742 9.10083 9.0769 8.13135 9.0769 6.93971V3.48192C9.0769 2.29028 8.10742 1.3208 6.91578 1.3208H3.45799ZM3.45799 2.18525H6.91578C7.63068 2.18525 8.21245 2.76702 8.21245 3.48192V6.93971C8.21245 7.65461 7.63068 8.23638 6.91578 8.23638H3.45799C2.7431 8.23638 2.16132 7.65461 2.16132 6.93971V3.48192C2.16132 2.76702 2.7431 2.18525 3.45799 2.18525ZM7.34801 2.61747C7.23337 2.61747 7.12344 2.66301 7.04238 2.74407C6.96132 2.82513 6.91578 2.93506 6.91578 3.0497C6.91578 3.16433 6.96132 3.27427 7.04238 3.35532C7.12344 3.43638 7.23337 3.48192 7.34801 3.48192C7.46264 3.48192 7.57258 3.43638 7.65364 3.35532C7.73469 3.27427 7.78023 3.16433 7.78023 3.0497C7.78023 2.93506 7.73469 2.82513 7.65364 2.74407C7.57258 2.66301 7.46264 2.61747 7.34801 2.61747ZM5.18689 3.0497C3.99525 3.0497 3.02577 4.01917 3.02577 5.21081C3.02577 6.40245 3.99525 7.37193 5.18689 7.37193C6.37853 7.37193 7.34801 6.40245 7.34801 5.21081C7.34801 4.01917 6.37853 3.0497 5.18689 3.0497ZM5.18689 3.91414C5.90179 3.91414 6.48356 4.49592 6.48356 5.21081C6.48356 5.92571 5.90179 6.50749 5.18689 6.50749C4.47199 6.50749 3.89022 5.92571 3.89022 5.21081C3.89022 4.49592 4.47199 3.91414 5.18689 3.91414Z" fill="white"/>
</svg>
