<svg width="11" height="11" viewBox="0 0 11 11" fill="none" xmlns="http://www.w3.org/2000/svg">
<g clip-path="url(#clip0_93_218)">
<path d="M6.69948 0.851562H3.24169C2.64522 0.851562 2.16113 1.33565 2.16113 1.93212V9.27992C2.16113 9.87639 2.64522 10.3605 3.24169 10.3605H6.69948C7.29595 10.3605 7.78004 9.87639 7.78004 9.27992V1.93212C7.78004 1.33565 7.29595 0.851562 6.69948 0.851562ZM4.97059 9.92826C4.61184 9.92826 4.32225 9.63867 4.32225 9.27992C4.32225 8.92118 4.61184 8.63159 4.97059 8.63159C5.32933 8.63159 5.61892 8.92118 5.61892 9.27992C5.61892 9.63867 5.32933 9.92826 4.97059 9.92826ZM6.91559 8.19937H3.02558V2.14823H6.91559V8.19937Z" fill="white"/>
</g>
<defs>
<clipPath id="clip0_93_218">
<rect width="10.3734" height="10.3734" fill="white" transform="translate(0 0.418945)"/>
</clipPath>
</defs>
</svg>
